<svg xmlns="http://www.w3.org/2000/svg" width="107.91" height="135" viewBox="0 0 35.97 45">
  <metadata><?xpacket begin="﻿" id="W5M0MpCehiHzreSzNTczkc9d"?>
<x:xmpmeta xmlns:x="adobe:ns:meta/" x:xmptk="Adobe XMP Core 5.6-c138 79.159824, 2016/09/14-01:09:01        ">
   <rdf:RDF xmlns:rdf="http://www.w3.org/1999/02/22-rdf-syntax-ns#">
      <rdf:Description rdf:about=""/>
   </rdf:RDF>
</x:xmpmeta>
                                                                                                    
                                                                                                    
                                                                                                    
                                                                                                    
                                                                                                    
                                                                                                    
                                                                                                    
                                                                                                    
                                                                                                    
                                                                                                    
                                                                                                    
                                                                                                    
                                                                                                    
                                                                                                    
                                                                                                    
                                                                                                    
                                                                                                    
                                                                                                    
                                                                                                    
                                                                                                    
                           
<?xpacket end="w"?></metadata>
<defs>
    <style>
      .cls-1 {
        fill: #829ff3;
        fill-rule: evenodd;
      }
    </style>
  </defs>
  <path id="location_copy" data-name="location copy" class="cls-1" d="M3191.01,2060.01a1,1,0,0,1-.61-0.21c-0.71-.54-17.38-13.4-17.38-26.81a17.99,17.99,0,1,1,35.98,0c0,13.35-16.67,26.27-17.38,26.81A1,1,0,0,1,3191.01,2060.01Zm0-43.02a16.013,16.013,0,0,0-15.99,16c0,11.05,13,22.3,15.99,24.74,2.99-2.45,15.99-13.74,15.99-24.74A16.013,16.013,0,0,0,3191.01,2016.99Zm0,24.01a8.005,8.005,0,1,1,7.99-8.01A8.013,8.013,0,0,1,3191.01,2041Zm0-14.01a6.005,6.005,0,1,0,5.99,6A6,6,0,0,0,3191.01,2026.99Z" transform="translate(-3173.03 -2015)"/>
</svg>
