<svg xmlns="http://www.w3.org/2000/svg" width="114" height="135" viewBox="0 0 38 45">
  <defs>
    <style>
      .cls-1 {
        fill: #829ff3;
        fill-rule: evenodd;
      }
    </style>
  </defs>
  <path id="my_go_s" data-name="my go&apos;s" class="cls-1" d="M3378.96,2046.99c-3.71,0-7.01-1.35-10.23-2.67-4.93-2.01-9.59-3.91-15.46-.75l-0.91-1.65c6.67-3.59,11.97-1.42,17.09.67,4.94,2.01,9.6,3.92,15.65,1.06v-18.54c-6.41,2.67-11.49.61-16.4-1.39-4.95-2.01-9.62-3.92-15.49-.75l-0.91-1.65c6.67-3.59,11.98-1.43,17.12.66,5.09,2.07,9.89,4.03,16.19.82a0.961,0.961,0,0,1,.93.03,0.919,0.919,0,0,1,.46.8v20.6a0.954,0.954,0,0,1-.51.84A16.313,16.313,0,0,1,3378.96,2046.99ZM3352.8,2061h-2.85a0.941,0.941,0,0,1-.95-0.94v-41.72a2.375,2.375,0,0,1,4.75,0v41.72A0.947,0.947,0,0,1,3352.8,2061Zm-1.9-1.88h0.95v-40.78a0.475,0.475,0,0,0-.95,0v40.78Z" transform="translate(-3349 -2016)"/>
</svg>
